<svg xmlns="http://www.w3.org/2000/svg" viewBox="0 0 520 240" width="520" height="240" role="img" aria-label="Free Body Problem — ground control station">
  <rect width="520.0" height="240.0" fill="#1B2012"/>
  <rect x="0.5" y="0.5" width="519.0" height="239.0" fill="none" stroke="#46552F" stroke-width="1" opacity="0.95"/>
  <text x="260.00" y="45.64" font-family="'Geist Mono','SFMono-Regular',ui-monospace,Menlo,Consolas,monospace" font-size="38" fill="#ECB94E" text-anchor="middle">FREE BODY PROBLEM</text>
  <text x="260.00" y="71.48" font-family="'Geist Mono','SFMono-Regular',ui-monospace,Menlo,Consolas,monospace" font-size="16" fill="#6E7B55" text-anchor="middle">Ground Control Station</text>
  <rect x="129.18" y="120.62" width="28.52" height="23.56" rx="2" fill="#242A19" stroke="#97EA89" stroke-width="1.2"/>
  <rect x="124.22" y="125.42" width="4.96" height="2.17" fill="#97EA89"/>
  <rect x="157.70" y="125.42" width="4.96" height="2.17" fill="#97EA89"/>
  <rect x="124.22" y="131.31" width="4.96" height="2.17" fill="#97EA89"/>
  <rect x="157.70" y="131.31" width="4.96" height="2.17" fill="#97EA89"/>
  <rect x="124.22" y="137.20" width="4.96" height="2.17" fill="#97EA89"/>
  <rect x="157.70" y="137.20" width="4.96" height="2.17" fill="#97EA89"/>
  <circle cx="132.28" cy="123.41" r="1.12" fill="#97EA89" opacity="0.45"/>
  <line x1="134.88" y1="132.40" x2="152.00" y2="132.40" stroke="#97EA89" stroke-width="0.8" opacity="0.5"/>
  <line x1="143.44" y1="125.33" x2="143.44" y2="139.47" stroke="#97EA89" stroke-width="0.8" opacity="0.5"/>
  <circle cx="137.17" cy="127.22" r="0.93" fill="#97EA89" opacity="0.45"/>
  <circle cx="137.17" cy="137.58" r="0.93" fill="#97EA89" opacity="0.45"/>
  <circle cx="149.71" cy="127.22" r="0.93" fill="#97EA89" opacity="0.45"/>
  <circle cx="149.71" cy="137.58" r="0.93" fill="#97EA89" opacity="0.45"/>
  <text x="143.44" y="136.88" font-family="'Geist Mono','SFMono-Regular',ui-monospace,Menlo,Consolas,monospace" font-size="16" fill="#97EA89" text-anchor="middle" opacity="0.800">AP</text>
  <path d="M 162.66 126.51 H 200.48 V 145.79 H 216.60" fill="none" stroke="#97EA89" stroke-width="1.1" opacity="0.70"/>
  <circle cx="200.48" cy="126.51" r="1.24" fill="#97EA89" opacity="0.60"/>
  <path d="M 162.66 132.40 H 206.06 V 157.20 H 216.60" fill="none" stroke="#97EA89" stroke-width="1.1" opacity="0.70"/>
  <circle cx="206.06" cy="132.40" r="1.24" fill="#97EA89" opacity="0.60"/>
  <path d="M 162.66 138.29 H 210.40 V 168.61 H 216.60" fill="none" stroke="#97EA89" stroke-width="1.1" opacity="0.70"/>
  <circle cx="210.40" cy="138.29" r="1.24" fill="#97EA89" opacity="0.60"/>
  <rect x="216.60" y="142.94" width="86.80" height="28.52" rx="5" fill="#161006" stroke="#C8C8C8" stroke-width="1.5"/>
  <polygon points="320.74,157.20 303.40,146.36 303.40,168.04" fill="#161006" stroke="#C8C8C8" stroke-width="1.4"/>
  <rect x="211.47" y="138.66" width="5.13" height="18.54" fill="#161006" stroke="#C8C8C8" stroke-width="1.3"/>
  <circle cx="260.00" cy="157.20" r="3.10" fill="none" stroke="#C8C8C8" stroke-width="1.3"/>
  <line x1="256.90" y1="157.20" x2="263.10" y2="157.20" stroke="#C8C8C8" stroke-width="1" opacity="0.8"/>
  <line x1="260.00" y1="154.10" x2="260.00" y2="160.30" stroke="#C8C8C8" stroke-width="1" opacity="0.8"/>
  <line x1="260.00" y1="157.20" x2="274.88" y2="157.20" stroke="#C8C8C8" stroke-width="1.0" opacity="0.627"/>
  <polygon points="278.60,157.20 274.88,158.28 274.88,156.11" fill="#C8C8C8" opacity="0.627"/>
  <text x="279.84" y="167.02" font-family="'Geist Mono','SFMono-Regular',ui-monospace,Menlo,Consolas,monospace" font-size="11" fill="#C8C8C8" text-anchor="start" opacity="0.471">xb</text>
  <line x1="260.00" y1="157.20" x2="260.00" y2="142.32" stroke="#C8C8C8" stroke-width="1.0" opacity="0.627"/>
  <polygon points="260.00,138.60 261.08,142.32 258.92,142.32" fill="#C8C8C8" opacity="0.627"/>
  <text x="261.86" y="139.12" font-family="'Geist Mono','SFMono-Regular',ui-monospace,Menlo,Consolas,monospace" font-size="11" fill="#C8C8C8" text-anchor="start" opacity="0.471">zb</text>
  <line x1="260.00" y1="142.94" x2="260.00" y2="100.16" stroke="#50C85A" stroke-width="1.8"/>
  <polygon points="260.00,94.58 261.70,100.16 258.30,100.16" fill="#50C85A"/>
  <text x="262.48" y="104.50" font-family="'Geist Mono','SFMono-Regular',ui-monospace,Menlo,Consolas,monospace" font-size="14" fill="#50C85A" text-anchor="start">L</text>
  <line x1="260.00" y1="171.46" x2="260.00" y2="214.24" stroke="#E6AA28" stroke-width="1.8"/>
  <polygon points="260.00,219.82 258.30,214.24 261.70,214.24" fill="#E6AA28"/>
  <text x="262.48" y="222.68" font-family="'Geist Mono','SFMono-Regular',ui-monospace,Menlo,Consolas,monospace" font-size="14" fill="#E6AA28" text-anchor="start">W</text>
  <line x1="320.74" y1="157.20" x2="363.52" y2="157.20" stroke="#4696E1" stroke-width="1.8"/>
  <polygon points="369.10,157.20 363.52,158.91 363.52,155.49" fill="#4696E1"/>
  <text x="367.24" y="157.58" font-family="'Geist Mono','SFMono-Regular',ui-monospace,Menlo,Consolas,monospace" font-size="14" fill="#4696E1" text-anchor="start">T</text>
  <line x1="211.47" y1="157.20" x2="168.69" y2="157.20" stroke="#D24141" stroke-width="1.8"/>
  <polygon points="163.11,157.20 168.69,155.49 168.69,158.91" fill="#D24141"/>
  <text x="164.97" y="157.58" font-family="'Geist Mono','SFMono-Regular',ui-monospace,Menlo,Consolas,monospace" font-size="14" fill="#D24141" text-anchor="start">D</text>
  <line x1="286.04" y1="182.62" x2="331.56" y2="162.92" stroke="#6ECDCD" stroke-width="1.5"/>
  <polygon points="336.11,160.95 332.18,164.34 330.95,161.50" fill="#6ECDCD"/>
  <text x="337.97" y="163.81" font-family="'Geist Mono','SFMono-Regular',ui-monospace,Menlo,Consolas,monospace" font-size="14" fill="#6ECDCD" text-anchor="start">V</text>
  <path d="M 236.91 143.87 A 26.66 26.66 0 0 1 283.09 143.87" fill="none" stroke="#AAAAAA" stroke-width="1.4"/>
  <polygon points="283.09,143.87 279.40,140.27 281.82,138.88" fill="#AAAAAA"/>
  <text x="289.14" y="162.54" font-family="'Geist Mono','SFMono-Regular',ui-monospace,Menlo,Consolas,monospace" font-size="14" fill="#AAAAAA" text-anchor="start">M</text>
</svg>
